<svg width="24" height="24" viewBox="0 0 24 24" fill="none" xmlns="http://www.w3.org/2000/svg">
<path d="M18.0142 17.3072L17.3042 18.0172C17.1042 18.2172 16.7942 18.2172 16.5942 18.0172C16.3942 17.8172 16.3942 17.5072 16.5942 17.3072L17.3042 16.5972L15.3642 14.6572L14.6542 15.3672C14.4542 15.5672 14.1442 15.5672 13.9442 15.3672C13.7442 15.1672 13.7442 14.8572 13.9442 14.6572L14.6542 13.9472L12.7142 12.0072L12.0042 12.7172C11.8042 12.9172 11.4942 12.9172 11.2942 12.7172C11.0942 12.5172 11.0942 12.2072 11.2942 12.0072L12.0042 11.2972L10.0542 9.34716L9.34425 10.0572C9.14425 10.2572 8.83425 10.2572 8.63425 10.0572C8.43425 9.85716 8.43425 9.54716 8.63425 9.34716L9.34425 8.63716L7.40425 6.69716L6.69425 7.40716C6.49425 7.60716 6.18425 7.60716 5.98425 7.40716C5.78425 7.20716 5.78425 6.89716 5.98425 6.69716L6.69425 5.98716L5.20425 4.49716C4.89425 4.18716 4.35425 4.40716 4.35425 4.85716V17.6472C4.35425 18.7472 5.25425 19.6472 6.35425 19.6472H19.1442C19.5942 19.6472 19.8142 19.1072 19.4942 18.7972L18.0142 17.3072ZM7.35425 15.6472V10.8872L13.1142 16.6472H8.35425C7.80425 16.6472 7.35425 16.1972 7.35425 15.6472Z" fill="#656A7B"/>
</svg>
