<svg width="24" height="24" viewBox="0 0 24 24" fill="none" xmlns="http://www.w3.org/2000/svg">
<circle cx="12" cy="12" r="12" fill="#3F424D"/>
<path d="M18.499 17.5H16.0144V13.6022C16.0144 12.6728 15.9978 11.4763 14.7222 11.4763C13.4281 11.4763 13.2301 12.4889 13.2301 13.5345V17.4997H10.7456V9.48433H13.1307V10.5797H13.1642C13.6498 9.7479 14.5562 9.24924 15.5175 9.28501C18.0357 9.28501 18.5001 10.9443 18.5001 13.1029L18.499 17.5Z" fill="#656A7B"/>
<path d="M7.94214 8.38865C7.94199 8.38865 7.94191 8.38865 7.94184 8.38865C7.15087 8.38865 6.5 7.73672 6.5 6.94436C6.5 6.15201 7.15087 5.5 7.94184 5.5C8.73273 5.5 9.38352 6.15186 9.38367 6.94406C9.38367 6.94414 9.38367 6.94421 9.38367 6.94436C9.38367 7.73657 8.73296 8.38858 7.94214 8.38865Z" fill="#656A7B"/>
<path d="M9.1844 17.5001H6.69727V9.48438H9.1844V17.5001Z" fill="#656A7B"/>
</svg>
