<svg width="28" height="28" viewBox="0 0 28 28" fill="none" xmlns="http://www.w3.org/2000/svg">
<g clip-path="url(#clip0_2705_1657)">
<path d="M23.7777 21.1427V6.85703C23.7777 5.5475 22.9777 4.47607 21.9999 4.47607H5.99995C5.02217 4.47607 4.22217 5.5475 4.22217 6.85703V21.1427C4.22217 22.4523 5.02217 23.5237 5.99995 23.5237H21.9999C22.9777 23.5237 23.7777 22.4523 23.7777 21.1427ZM11.2444 15.1665L13.1111 18.1785L15.8666 13.4285C16.0444 13.1189 16.3999 13.1189 16.5777 13.4404L19.6977 19.0118C19.9199 19.4046 19.7066 19.9642 19.3422 19.9642H8.68439C8.31106 19.9642 8.10661 19.3927 8.33772 18.9999L10.5511 15.1904C10.7199 14.8808 11.0577 14.8689 11.2444 15.1665Z" fill="#717689"/>
</g>
<defs>
<clipPath id="clip0_2705_1657">
<rect width="20" height="20" fill="white" transform="translate(4 4)"/>
</clipPath>
</defs>
</svg>
