<svg width="32" height="32" viewBox="0 0 32 32" fill="none" xmlns="http://www.w3.org/2000/svg">
<path d="M24.019 23.0764L23.0723 24.0231C22.8057 24.2897 22.3923 24.2897 22.1257 24.0231C21.859 23.7564 21.859 23.3431 22.1257 23.0764L23.0723 22.1297L20.4857 19.5431L19.539 20.4897C19.2723 20.7564 18.859 20.7564 18.5923 20.4897C18.3257 20.2231 18.3257 19.8097 18.5923 19.5431L19.539 18.5964L16.9523 16.0097L16.0057 16.9564C15.739 17.2231 15.3257 17.2231 15.059 16.9564C14.7923 16.6897 14.7923 16.2764 15.059 16.0097L16.0057 15.0631L13.4057 12.4631L12.459 13.4097C12.1923 13.6764 11.779 13.6764 11.5123 13.4097C11.2457 13.1431 11.2457 12.7297 11.5123 12.4631L12.459 11.5164L9.87233 8.92975L8.92566 9.87641C8.659 10.1431 8.24566 10.1431 7.979 9.87641C7.71233 9.60975 7.71233 9.19641 7.979 8.92975L8.92566 7.98308L6.939 5.99641C6.52566 5.58308 5.80566 5.87641 5.80566 6.47641V23.5297C5.80566 24.9964 7.00566 26.1964 8.47233 26.1964H25.5257C26.1257 26.1964 26.419 25.4764 25.9923 25.0631L24.019 23.0764ZM9.80566 20.8631V14.5164L17.4857 22.1964H11.139C10.4057 22.1964 9.80566 21.5964 9.80566 20.8631Z" fill="#717689"/>
</svg>
