<svg width="32" height="32" viewBox="0 0 32 32" fill="none" xmlns="http://www.w3.org/2000/svg">
<path d="M16 2.6665C8.65329 2.6665 2.66663 8.65317 2.66663 15.9998C2.66663 23.3465 8.65329 29.3332 16 29.3332C17.84 29.3332 19.3333 27.8398 19.3333 25.9998C19.3333 25.1865 19.0266 24.3998 18.48 23.7732C18.3733 23.6398 18.3066 23.4932 18.3066 23.3332C18.3066 22.9598 18.6 22.6665 18.9733 22.6665H21.3333C25.7466 22.6665 29.3333 19.0798 29.3333 14.6665C29.3333 8.05317 23.3466 2.6665 16 2.6665ZM23.3333 17.3332C22.2266 17.3332 21.3333 16.4398 21.3333 15.3332C21.3333 14.2265 22.2266 13.3332 23.3333 13.3332C24.44 13.3332 25.3333 14.2265 25.3333 15.3332C25.3333 16.4398 24.44 17.3332 23.3333 17.3332ZM19.3333 11.9998C18.2266 11.9998 17.3333 11.1065 17.3333 9.99984C17.3333 8.89317 18.2266 7.99984 19.3333 7.99984C20.44 7.99984 21.3333 8.89317 21.3333 9.99984C21.3333 11.1065 20.44 11.9998 19.3333 11.9998ZM6.66663 15.3332C6.66663 14.2265 7.55996 13.3332 8.66663 13.3332C9.77329 13.3332 10.6666 14.2265 10.6666 15.3332C10.6666 16.4398 9.77329 17.3332 8.66663 17.3332C7.55996 17.3332 6.66663 16.4398 6.66663 15.3332ZM14.6666 9.99984C14.6666 11.1065 13.7733 11.9998 12.6666 11.9998C11.56 11.9998 10.6666 11.1065 10.6666 9.99984C10.6666 8.89317 11.56 7.99984 12.6666 7.99984C13.7733 7.99984 14.6666 8.89317 14.6666 9.99984Z" fill="#717689"/>
</svg>
