<svg width="128" height="128" viewBox="0 0 128 128" fill="none" xmlns="http://www.w3.org/2000/svg">
<path fill-rule="evenodd" clip-rule="evenodd" d="M74.9946 96.9837C74.9943 95.5928 73.2584 94.961 72.3641 96.0262L68.303 100.868L61.9837 100.867C60.5928 100.867 59.961 102.603 61.0263 103.497L65.8679 107.558L65.8667 113.878C65.867 115.269 67.603 115.9 68.4973 114.835L72.5583 109.993L78.8776 109.995C80.2685 109.994 80.9003 108.258 79.8351 107.364L74.9934 103.303L74.9946 96.9837Z" fill="white"/>
<path fill-rule="evenodd" clip-rule="evenodd" d="M54.7672 16.1536C54.012 15.2214 52.5054 15.7402 52.4842 16.9397L52.3901 22.3895L48.1535 25.8188C47.2214 26.5741 47.7402 28.0806 48.9397 28.1019L54.3894 28.1959L57.8188 32.4325C58.574 33.3646 60.0806 32.8459 60.1018 31.6464L60.1959 26.1966L64.4325 22.7673C65.3646 22.012 64.8459 20.5055 63.6464 20.4842L58.1966 20.3902L54.7672 16.1536Z" fill="white"/>
<path fill-rule="evenodd" clip-rule="evenodd" d="M25.1791 67.3731C25.1789 66.4317 24.004 66.0041 23.3987 66.725L20.6501 70.002L16.3731 70.0011C15.4317 70.0014 15.0041 71.1763 15.7251 71.7816L19.002 74.5302L19.0012 78.8072C19.0014 79.7486 20.1763 80.1762 20.7816 79.4552L23.5302 76.1783L27.8072 76.1791C28.7486 76.1789 29.1762 75.004 28.4552 74.3987L25.1783 71.6501L25.1791 67.3731Z" fill="white"/>
<path fill-rule="evenodd" clip-rule="evenodd" d="M106.179 49.3731C106.179 48.4317 105.004 48.0041 104.399 48.725L101.65 52.002L97.3731 52.0011C96.4317 52.0014 96.0041 53.1763 96.725 53.7816L100.002 56.5302L100.001 60.8072C100.001 61.7486 101.176 62.1762 101.782 61.4552L104.53 58.1783L108.807 58.1791C109.749 58.1789 110.176 57.004 109.455 56.3987L106.178 53.6501L106.179 49.3731Z" fill="white"/>
<path fill-rule="evenodd" clip-rule="evenodd" d="M93.3464 35.0402C95.0912 29.3278 88.7558 24.5537 83.7457 27.8055L60.9896 42.5897L35.04 34.6506C29.3276 32.9058 24.5535 39.2413 27.8053 44.2514L42.5895 67.0074L34.6504 92.9571C32.9056 98.6694 39.2411 103.444 44.2512 100.192L67.0072 85.4075L92.9569 93.3466C98.6692 95.0914 103.443 88.756 100.192 83.7459L85.4073 60.9898L93.3464 35.0402Z" fill="white"/>
</svg>
